<?xml version="1.0" standalone="no"?>
<!DOCTYPE svg PUBLIC "-//W3C//DTD SVG 20010904//EN"
 "http://www.w3.org/TR/2001/REC-SVG-20010904/DTD/svg10.dtd">
<svg version="1.0" xmlns="http://www.w3.org/2000/svg"
 width="48.000000pt" height="48.000000pt" viewBox="0 0 48.000000 48.000000"
 preserveAspectRatio="xMidYMid meet">

<g transform="translate(0.000000,48.000000) scale(0.100000,-0.100000)"
fill="#000000" stroke="none">
<path d="M62 398 c-8 -8 -12 -50 -12 -124 0 -109 -1 -113 -22 -116 -31 -4 -35
-41 -9 -67 20 -20 32 -21 221 -21 189 0 201 1 221 21 26 26 22 63 -8 67 -21 3
-23 9 -23 58 0 41 -4 54 -15 54 -12 0 -15 -13 -15 -55 l0 -55 -115 0 c-96 0
-115 -3 -115 -15 0 -13 22 -15 141 -15 125 0 140 -2 129 -15 -18 -22 -382 -22
-400 0 -11 13 -6 15 34 15 34 0 46 4 46 15 0 8 -9 15 -20 15 -19 0 -20 7 -20
110 l0 110 160 0 160 0 0 -35 c0 -24 5 -35 15 -35 19 0 21 70 3 88 -17 17
-339 17 -356 0z"/>
</g>
</svg>
