<?xml version="1.0" standalone="no"?>
<!DOCTYPE svg PUBLIC "-//W3C//DTD SVG 20010904//EN"
 "http://www.w3.org/TR/2001/REC-SVG-20010904/DTD/svg10.dtd">
<svg version="1.0" xmlns="http://www.w3.org/2000/svg"
 width="48.000000pt" height="48.000000pt" viewBox="0 0 48.000000 48.000000"
 preserveAspectRatio="xMidYMid meet">

<g transform="translate(0.000000,48.000000) scale(0.100000,-0.100000)"
fill="#000000" stroke="none">
<path d="M122 448 c-18 -18 -16 -78 3 -78 10 0 15 10 15 30 l0 30 100 0 100 0
0 -135 c0 -113 2 -135 15 -135 13 0 15 21 15 131 0 72 -5 139 -10 150 -10 17
-22 19 -118 19 -71 0 -112 -4 -120 -12z"/>
<path d="M224 399 c-10 -17 13 -36 27 -22 12 12 4 33 -11 33 -5 0 -12 -5 -16
-11z"/>
<path d="M110 191 c0 -179 -6 -171 134 -171 73 0 98 4 110 16 21 20 21 74 1
74 -10 0 -15 -10 -15 -30 l0 -30 -100 0 -99 0 -3 142 c-2 102 -6 143 -15 146
-10 3 -13 -31 -13 -147z"/>
</g>
</svg>
