<?xml version="1.0" standalone="no"?>
<!DOCTYPE svg PUBLIC "-//W3C//DTD SVG 20010904//EN"
 "http://www.w3.org/TR/2001/REC-SVG-20010904/DTD/svg10.dtd">
<svg version="1.0" xmlns="http://www.w3.org/2000/svg"
 width="100.000000pt" height="100.000000pt" viewBox="0 0 100.000000 100.000000"
 preserveAspectRatio="xMidYMid meet">

<g transform="translate(0.000000,100.000000) scale(0.100000,-0.100000)"
fill="#000000" stroke="none">
<path d="M300 845 l-44 -45 149 -150 150 -150 -150 -150 -150 -150 48 -47 47
-48 197 198 198 197 -195 195 c-107 107 -197 195 -200 195 -3 0 -26 -20 -50
-45z m235 -165 l180 -180 -182 -182 -183 -183 -32 33 -33 32 150 150 150 150
-150 150 -149 149 29 31 c16 16 31 30 34 30 4 0 87 -81 186 -180z"/>
<path d="M380 795 c0 -14 158 -170 164 -164 3 3 -33 43 -79 89 -47 47 -85 80
-85 75z"/>
<path d="M600 573 c0 -13 29 -38 35 -31 3 3 -4 13 -15 23 -11 10 -20 13 -20 8z"/>
<path d="M660 510 c0 -5 5 -10 11 -10 5 0 7 5 4 10 -3 6 -8 10 -11 10 -2 0 -4
-4 -4 -10z"/>
<path d="M495 330 c-65 -66 -117 -122 -114 -124 3 -3 59 48 124 114 65 66 117
122 114 124 -3 3 -59 -48 -124 -114z"/>
</g>
</svg>
