<?xml version="1.0" standalone="no"?>
<!DOCTYPE svg PUBLIC "-//W3C//DTD SVG 20010904//EN"
 "http://www.w3.org/TR/2001/REC-SVG-20010904/DTD/svg10.dtd">
<svg version="1.0" xmlns="http://www.w3.org/2000/svg"
 width="48.000000pt" height="48.000000pt" viewBox="0 0 48.000000 48.000000"
 preserveAspectRatio="xMidYMid meet">

<g transform="translate(0.000000,48.000000) scale(0.100000,-0.100000)"
fill="#000000" stroke="none">
<path d="M66 384 c-23 -23 -23 -265 0 -288 22 -23 204 -23 204 -1 0 12 -17 15
-95 15 l-95 0 0 130 0 130 30 0 c20 0 30 5 30 15 0 20 -54 20 -74 -1z"/>
<path d="M170 385 c0 -12 19 -15 115 -15 l115 0 0 -130 0 -130 -35 0 c-24 0
-35 -5 -35 -15 0 -21 64 -20 84 1 23 23 23 265 0 288 -22 23 -244 24 -244 1z"/>
<path d="M110 240 c0 -5 7 -10 15 -10 8 0 15 5 15 10 0 6 -7 10 -15 10 -8 0
-15 -4 -15 -10z"/>
</g>
</svg>
