<?xml version="1.0" standalone="no"?>
<!DOCTYPE svg PUBLIC "-//W3C//DTD SVG 20010904//EN"
 "http://www.w3.org/TR/2001/REC-SVG-20010904/DTD/svg10.dtd">
<svg version="1.0" xmlns="http://www.w3.org/2000/svg"
 width="48.000000pt" height="48.000000pt" viewBox="0 0 48.000000 48.000000"
 preserveAspectRatio="xMidYMid meet">

<g transform="translate(0.000000,48.000000) scale(0.100000,-0.100000)"
fill="#000000" stroke="none">
<path d="M36 394 c-13 -12 -16 -40 -16 -139 0 -131 8 -155 50 -155 13 0 17 -5
14 -15 -8 -20 20 -20 36 0 8 10 37 15 98 17 129 4 103 22 -40 28 l-123 5 0
120 0 120 33 3 c20 2 32 9 32 18 0 20 -64 19 -84 -2z"/>
<path d="M170 395 c0 -13 21 -15 130 -15 l130 0 0 -125 0 -125 -45 0 c-49 0
-58 -15 -27 -43 23 -21 46 -22 38 -2 -3 10 1 15 14 15 43 0 50 24 50 160 0
118 -2 130 -19 140 -11 5 -76 10 -145 10 -105 0 -126 -2 -126 -15z"/>
</g>
</svg>
